<svg width="100" height="100" xmlns="http://www.w3.org/2000/svg" data-name="Layer 1">

    <title />
    <g>
        <title>Layer 1</title>
        <path id="svg_1" fill="#b4e197" stroke="#b4e197" stroke-width="2" d="m56.94,1.74l-0.33,0c-10.76,0.2 -19.34,9.55 -19.13,20.83l0,0l0,44a1,1 0 0 0 2,0l0,-44l0,0c-0.2,-10.21 7.52,-18.65 17.17,-18.83l0.29,0a15.31,15.31 0 0 1 15.28,15a13.1,13.1 0 0 1 -12.83,13.32a10.93,10.93 0 0 1 -8,-3.13a11.08,11.08 0 0 1 -3.39,-7.83a9.51,9.51 0 0 1 9.33,-9.69a8.14,8.14 0 0 1 5.76,2.26a8,8 0 0 1 2.48,5.67a6.87,6.87 0 0 1 -6.72,7a5.68,5.68 0 0 1 -4.13,-1.62a5.79,5.79 0 0 1 -1.72,-4.07a4.8,4.8 0 0 1 0.13,-1.14a4.48,4.48 0 0 0 -0.07,0.64a5.34,5.34 0 0 0 10.27,2a5.31,5.31 0 0 0 0.59,-2.54a6,6 0 0 0 -1.92,-4.22a5.9,5.9 0 0 0 -4.32,-1.7a6.86,6.86 0 0 0 -6.74,7a7.8,7.8 0 0 0 7.93,7.65a8.87,8.87 0 0 0 8.69,-9a10.09,10.09 0 0 0 -10.27,-9.9a11.52,11.52 0 0 0 -11.29,11.7a13.16,13.16 0 0 0 13.18,12.92l0.25,0a15.1,15.1 0 0 0 14.79,-15.36a17.31,17.31 0 0 0 -17.28,-16.96z" class="cls-1" />
        <path id="svg_2" fill="#b4e197" stroke="#b4e197" stroke-width="2" d="m33.62,39.06c0.16,-8.66 -6.42,-15.83 -14.67,-16a13.34,13.34 0 0 0 -9.47,3.71a13.19,13.19 0 0 0 -4.07,9.32a11.64,11.64 0 0 0 11.4,11.83l0.19,0a10.16,10.16 0 0 0 10.17,-9.92a8.93,8.93 0 0 0 -8.76,-9.1a7.87,7.87 0 0 0 -8,7.71a6.94,6.94 0 0 0 6.8,7a6,6 0 0 0 4.36,-1.71a6.1,6.1 0 0 0 1.87,-4.29a5.43,5.43 0 0 0 -5.32,-5.53a5,5 0 0 0 -3.44,1.35a4.82,4.82 0 0 0 -1.48,3.39a4.2,4.2 0 0 0 5.8,4.08a3.87,3.87 0 0 0 1.4,-0.67c-0.07,0.08 -0.13,0.17 -0.2,0.24a4.17,4.17 0 0 1 -2.94,1.15a4.93,4.93 0 0 1 -4.83,-5a5.87,5.87 0 0 1 5.86,-5.75l0.11,0a6.93,6.93 0 0 1 6.79,7.06a8.14,8.14 0 0 1 -2.5,5.74a8.23,8.23 0 0 1 -5.82,2.28a9.63,9.63 0 0 1 -9.44,-9.79a11.29,11.29 0 0 1 11.5,-11.07c7.15,0.13 12.85,6.39 12.71,13.94c0,0 0,0 0,0l0,33.55a1,1 0 0 0 2,0l0,-33.52l-0.02,0z" class="cls-1" />
        <path id="svg_3" fill="#b4e197" stroke="#b4e197" stroke-width="2" d="m49.89,61.87a6.85,6.85 0 0 0 -6.56,7.13a0.36,0.36 0 0 0 0,0.1a0.24,0.24 0 0 0 0,0.09l0,14.36a1,1 0 0 0 2,0l0,-14.38s0,-0.08 0,-0.11s0,-0.07 0,-0.11a4.85,4.85 0 0 1 4.59,-5.08l0.08,0a4,4 0 0 1 4,3.93a3.2,3.2 0 0 1 -0.11,0.93a4,4 0 0 0 0.11,-0.73a3.81,3.81 0 0 0 -3.87,-3.72a4.22,4.22 0 0 0 -4.13,4.26a4.74,4.74 0 0 0 1.45,3.32a4.7,4.7 0 0 0 3.29,1.33l0.09,0a5.33,5.33 0 0 0 5.17,-5.43a6,6 0 0 0 -6.11,-5.89z" class="cls-1" />
        <path id="svg_4" fill="#995f5b" stroke="#995f5b" stroke-width="2" d="m38.47,65.25a1,1 0 0 0 -1,1l0,23.3a1,1 0 0 0 2,0l0,-23.3a1,1 0 0 0 -1,-1z" class="cls-2" />
        <path id="svg_5" fill="#995f5b" stroke="#995f5b" stroke-width="2" d="m32.62,71.08a1,1 0 0 0 -1,1l0,17.47a1,1 0 0 0 2,0l0,-17.47a1,1 0 0 0 -1,-1z" class="cls-2" />
        <path id="svg_6" fill="#995f5b" stroke="#995f5b" stroke-width="2" d="m44.33,81.75a1,1 0 0 0 -1,1l0,6.8a1,1 0 0 0 2,0l0,-6.8a1,1 0 0 0 -1,-1z" class="cls-2" />
    </g>
</svg>